<svg xmlns="http://www.w3.org/2000/svg" xmlns:xlink="http://www.w3.org/1999/xlink" width="1920" zoomAndPan="magnify" viewBox="0 0 1440 809.999993" height="1080" preserveAspectRatio="xMidYMid meet" version="1.0"><defs><g/><clipPath id="adcc2d267a"><rect x="0" width="1425" y="0" height="771"/></clipPath></defs><g transform="matrix(1, 0, 0, 1, 15, 0.000000000000039746)"><g clip-path="url(#adcc2d267a)"><g fill="#000000" fill-opacity="1"><g transform="translate(218.106103, 504.900799)"><g><path d="M 355.03125 -126.21875 C 352.957031 -126.21875 350.882812 -123.9375 348.8125 -119.375 C 341.351562 -102.382812 333.269531 -86.53125 324.5625 -71.8125 C 315.863281 -57.101562 305.914062 -44.359375 294.71875 -33.578125 C 283.53125 -22.796875 271.097656 -14.398438 257.421875 -8.390625 C 243.742188 -2.378906 228.613281 0.625 212.03125 0.625 C 174.3125 0.625 146.332031 -14.085938 128.09375 -43.515625 C 109.851562 -72.953125 100.734375 -116.066406 100.734375 -172.859375 L 100.734375 -242.5 C 100.734375 -297.207031 110.054688 -339.378906 128.703125 -369.015625 C 147.359375 -398.660156 176.171875 -413.484375 215.140625 -413.484375 C 231.304688 -413.484375 246.019531 -410.890625 259.28125 -405.703125 C 272.550781 -400.523438 284.570312 -393.375 295.34375 -384.25 C 306.125 -375.132812 315.453125 -364.148438 323.328125 -351.296875 C 331.203125 -338.453125 337.625 -324.566406 342.59375 -309.640625 C 343.84375 -305.492188 345.296875 -303.421875 346.953125 -303.421875 C 349.023438 -303.421875 350.0625 -305.910156 350.0625 -310.890625 L 350.0625 -412.234375 C 350.0625 -415.972656 349.644531 -418.460938 348.8125 -419.703125 C 347.988281 -420.941406 346.75 -421.5625 345.09375 -421.5625 C 343.019531 -421.5625 340.320312 -419.90625 337 -416.59375 L 312.75 -391.71875 C 299.488281 -402.5 284.566406 -410.6875 267.984375 -416.28125 C 251.398438 -421.875 233.785156 -424.671875 215.140625 -424.671875 C 187.773438 -424.671875 162.382812 -418.453125 138.96875 -406.015625 C 115.550781 -393.585938 95.238281 -377.21875 78.03125 -356.90625 C 60.832031 -336.59375 47.460938 -313.484375 37.921875 -287.578125 C 28.390625 -261.671875 23.625 -235.453125 23.625 -208.921875 C 23.625 -178.242188 29.113281 -149.535156 40.09375 -122.796875 C 51.082031 -96.066406 65.488281 -72.75 83.3125 -52.84375 C 101.144531 -32.945312 121.25 -17.195312 143.625 -5.59375 C 166.007812 6.007812 188.8125 11.8125 212.03125 11.8125 C 231.507812 11.8125 250.160156 7.976562 267.984375 0.3125 C 285.804688 -7.351562 301.765625 -19.0625 315.859375 -34.8125 L 348.8125 1.25 C 350.882812 3.320312 352.753906 4.359375 354.421875 4.359375 C 356.898438 4.359375 358.140625 2.90625 358.140625 0 L 358.140625 -120 C 358.140625 -124.144531 357.101562 -126.21875 355.03125 -126.21875 Z M 355.03125 -126.21875 "/></g></g></g><g fill="#000000" fill-opacity="1"><g transform="translate(599.250587, 504.900799)"><g><path d="M 326.4375 -320.84375 C 326.4375 -336.175781 322.910156 -349.957031 315.859375 -362.1875 C 308.816406 -374.414062 299.390625 -384.570312 287.578125 -392.65625 C 275.765625 -400.738281 262.1875 -406.957031 246.84375 -411.3125 C 231.507812 -415.664062 215.550781 -417.84375 198.96875 -417.84375 L 18.03125 -417.84375 L 18.03125 -407.890625 L 71.5 -407.890625 L 71.5 -9.953125 L 18.03125 -9.953125 L 18.03125 0 L 203.9375 0 C 247.050781 0 280.523438 -9.945312 304.359375 -29.84375 C 328.191406 -49.738281 340.109375 -77.304688 340.109375 -112.546875 C 340.109375 -130.785156 336.484375 -146.742188 329.234375 -160.421875 C 321.984375 -174.097656 312.96875 -185.703125 302.1875 -195.234375 C 291.40625 -204.773438 279.484375 -212.132812 266.421875 -217.3125 C 253.367188 -222.488281 241.25 -225.703125 230.0625 -226.953125 C 243.738281 -229.441406 256.484375 -233.066406 268.296875 -237.828125 C 280.109375 -242.597656 290.265625 -248.816406 298.765625 -256.484375 C 307.265625 -264.148438 314 -273.269531 318.96875 -283.84375 C 323.945312 -294.414062 326.4375 -306.75 326.4375 -320.84375 Z M 131.8125 -230.6875 L 131.8125 -407.890625 L 198.96875 -407.890625 C 209.332031 -407.890625 218.660156 -406.539062 226.953125 -403.84375 C 235.242188 -401.15625 242.289062 -396.597656 248.09375 -390.171875 C 253.894531 -383.742188 258.453125 -375.242188 261.765625 -364.671875 C 265.085938 -354.097656 266.75 -341.144531 266.75 -325.8125 L 266.75 -315.859375 C 266.75 -299.285156 265.085938 -285.503906 261.765625 -274.515625 C 258.453125 -263.535156 253.894531 -254.832031 248.09375 -248.40625 C 242.289062 -241.976562 235.140625 -237.414062 226.640625 -234.71875 C 218.140625 -232.03125 208.914062 -230.6875 198.96875 -230.6875 Z M 131.8125 -9.953125 L 131.8125 -220.734375 L 198.96875 -220.734375 C 227.570312 -220.734375 247.988281 -212.023438 260.21875 -194.609375 C 272.445312 -177.203125 278.5625 -152.332031 278.5625 -120 L 278.5625 -105.078125 C 278.5625 -74.816406 272.753906 -51.394531 261.140625 -34.8125 C 249.535156 -18.238281 228.8125 -9.953125 198.96875 -9.953125 Z M 131.8125 -9.953125 "/></g></g></g><g fill="#000000" fill-opacity="1"><g transform="translate(971.068536, 504.900799)"><g><path d="M 194 -407.890625 L 194 -417.84375 L 26.734375 -417.84375 L 26.734375 -407.890625 L 80.203125 -407.890625 L 80.203125 -9.953125 L 26.734375 -9.953125 L 26.734375 0 L 194 0 L 194 -9.953125 L 140.515625 -9.953125 L 140.515625 -407.890625 Z M 194 -407.890625 "/></g></g></g><g fill="#000000" fill-opacity="1"><g transform="translate(1.78129, 642.422287)"><g><path d="M 32.46875 0.46875 C 27.082031 0.46875 22.226562 -0.722656 17.90625 -3.109375 C 13.582031 -5.492188 10.191406 -8.796875 7.734375 -13.015625 C 5.273438 -17.234375 4.046875 -21.957031 4.046875 -27.1875 C 4.046875 -32.414062 5.273438 -37.140625 7.734375 -41.359375 C 10.191406 -45.585938 13.59375 -48.890625 17.9375 -51.265625 C 22.289062 -53.648438 27.160156 -54.84375 32.546875 -54.84375 C 36.585938 -54.84375 40.316406 -54.171875 43.734375 -52.828125 C 47.148438 -51.484375 50.050781 -49.515625 52.4375 -46.921875 L 48.78125 -43.265625 C 44.539062 -47.566406 39.179688 -49.71875 32.703125 -49.71875 C 28.410156 -49.71875 24.5 -48.734375 20.96875 -46.765625 C 17.445312 -44.796875 14.691406 -42.101562 12.703125 -38.6875 C 10.710938 -35.269531 9.71875 -31.4375 9.71875 -27.1875 C 9.71875 -22.9375 10.710938 -19.101562 12.703125 -15.6875 C 14.691406 -12.269531 17.445312 -9.578125 20.96875 -7.609375 C 24.5 -5.640625 28.410156 -4.65625 32.703125 -4.65625 C 39.234375 -4.65625 44.59375 -6.832031 48.78125 -11.1875 L 52.4375 -7.53125 C 50.050781 -4.945312 47.132812 -2.96875 43.6875 -1.59375 C 40.25 -0.21875 36.507812 0.46875 32.46875 0.46875 Z M 32.46875 0.46875 "/></g></g></g><g fill="#000000" fill-opacity="1"><g transform="translate(111.786372, 642.422287)"><g><path d="M 32.625 0.46875 C 27.238281 0.46875 22.359375 -0.734375 17.984375 -3.140625 C 13.609375 -5.554688 10.191406 -8.859375 7.734375 -13.046875 C 5.273438 -17.242188 4.046875 -21.957031 4.046875 -27.1875 C 4.046875 -32.414062 5.273438 -37.128906 7.734375 -41.328125 C 10.191406 -45.523438 13.609375 -48.828125 17.984375 -51.234375 C 22.359375 -53.640625 27.238281 -54.84375 32.625 -54.84375 C 38.007812 -54.84375 42.863281 -53.648438 47.1875 -51.265625 C 51.519531 -48.890625 54.925781 -45.585938 57.40625 -41.359375 C 59.894531 -37.140625 61.140625 -32.414062 61.140625 -27.1875 C 61.140625 -21.957031 59.894531 -17.234375 57.40625 -13.015625 C 54.925781 -8.796875 51.519531 -5.492188 47.1875 -3.109375 C 42.863281 -0.722656 38.007812 0.46875 32.625 0.46875 Z M 32.625 -4.65625 C 36.925781 -4.65625 40.8125 -5.625 44.28125 -7.5625 C 47.75 -9.507812 50.46875 -12.203125 52.4375 -15.640625 C 54.40625 -19.085938 55.390625 -22.9375 55.390625 -27.1875 C 55.390625 -31.4375 54.40625 -35.28125 52.4375 -38.71875 C 50.46875 -42.164062 47.75 -44.859375 44.28125 -46.796875 C 40.8125 -48.742188 36.925781 -49.71875 32.625 -49.71875 C 28.332031 -49.71875 24.4375 -48.742188 20.9375 -46.796875 C 17.4375 -44.859375 14.691406 -42.164062 12.703125 -38.71875 C 10.710938 -35.28125 9.71875 -31.4375 9.71875 -27.1875 C 9.71875 -22.9375 10.710938 -19.085938 12.703125 -15.640625 C 14.691406 -12.203125 17.4375 -9.507812 20.9375 -7.5625 C 24.4375 -5.625 28.332031 -4.65625 32.625 -4.65625 Z M 32.625 -4.65625 "/></g></g></g><g fill="#000000" fill-opacity="1"><g transform="translate(231.110055, 642.422287)"><g><path d="M 54.296875 -54.375 L 54.296875 0 L 49.5625 0 L 14.609375 -44.125 L 14.609375 0 L 8.859375 0 L 8.859375 -54.375 L 13.59375 -54.375 L 48.625 -10.25 L 48.625 -54.375 Z M 54.296875 -54.375 "/></g></g></g><g fill="#000000" fill-opacity="1"><g transform="translate(348.414714, 642.422287)"><g><path d="M 45.984375 0 L 33.5625 -17.484375 C 32.164062 -17.328125 30.710938 -17.25 29.203125 -17.25 L 14.609375 -17.25 L 14.609375 0 L 8.859375 0 L 8.859375 -54.375 L 29.203125 -54.375 C 36.148438 -54.375 41.585938 -52.71875 45.515625 -49.40625 C 49.453125 -46.09375 51.421875 -41.535156 51.421875 -35.734375 C 51.421875 -31.484375 50.347656 -27.894531 48.203125 -24.96875 C 46.054688 -22.050781 42.988281 -19.941406 39 -18.640625 L 52.28125 0 Z M 29.0625 -22.140625 C 34.445312 -22.140625 38.5625 -23.328125 41.40625 -25.703125 C 44.257812 -28.085938 45.6875 -31.429688 45.6875 -35.734375 C 45.6875 -40.140625 44.257812 -43.519531 41.40625 -45.875 C 38.5625 -48.226562 34.445312 -49.40625 29.0625 -49.40625 L 14.609375 -49.40625 L 14.609375 -22.140625 Z M 29.0625 -22.140625 "/></g></g></g><g fill="#000000" fill-opacity="1"><g transform="translate(458.73038, 642.422287)"><g><path d="M 32.625 0.46875 C 27.238281 0.46875 22.359375 -0.734375 17.984375 -3.140625 C 13.609375 -5.554688 10.191406 -8.859375 7.734375 -13.046875 C 5.273438 -17.242188 4.046875 -21.957031 4.046875 -27.1875 C 4.046875 -32.414062 5.273438 -37.128906 7.734375 -41.328125 C 10.191406 -45.523438 13.609375 -48.828125 17.984375 -51.234375 C 22.359375 -53.640625 27.238281 -54.84375 32.625 -54.84375 C 38.007812 -54.84375 42.863281 -53.648438 47.1875 -51.265625 C 51.519531 -48.890625 54.925781 -45.585938 57.40625 -41.359375 C 59.894531 -37.140625 61.140625 -32.414062 61.140625 -27.1875 C 61.140625 -21.957031 59.894531 -17.234375 57.40625 -13.015625 C 54.925781 -8.796875 51.519531 -5.492188 47.1875 -3.109375 C 42.863281 -0.722656 38.007812 0.46875 32.625 0.46875 Z M 32.625 -4.65625 C 36.925781 -4.65625 40.8125 -5.625 44.28125 -7.5625 C 47.75 -9.507812 50.46875 -12.203125 52.4375 -15.640625 C 54.40625 -19.085938 55.390625 -22.9375 55.390625 -27.1875 C 55.390625 -31.4375 54.40625 -35.28125 52.4375 -38.71875 C 50.46875 -42.164062 47.75 -44.859375 44.28125 -46.796875 C 40.8125 -48.742188 36.925781 -49.71875 32.625 -49.71875 C 28.332031 -49.71875 24.4375 -48.742188 20.9375 -46.796875 C 17.4375 -44.859375 14.691406 -42.164062 12.703125 -38.71875 C 10.710938 -35.28125 9.71875 -31.4375 9.71875 -27.1875 C 9.71875 -22.9375 10.710938 -19.085938 12.703125 -15.640625 C 14.691406 -12.203125 17.4375 -9.507812 20.9375 -7.5625 C 24.4375 -5.625 28.332031 -4.65625 32.625 -4.65625 Z M 32.625 -4.65625 "/></g></g></g><g fill="#000000" fill-opacity="1"><g transform="translate(578.054064, 642.422287)"><g><path d="M 27.5 -18.796875 L 27.5 0 L 21.828125 0 L 21.828125 -18.796875 L 0.078125 -54.375 L 6.21875 -54.375 L 24.859375 -23.84375 L 43.5 -54.375 L 49.25 -54.375 Z M 27.5 -18.796875 "/></g></g></g><g fill="#000000" fill-opacity="1"><g transform="translate(681.536142, 642.422287)"><g/></g></g><g fill="#000000" fill-opacity="1"><g transform="translate(756.052931, 642.422287)"><g><path d="M 43.109375 -28.046875 C 46.691406 -27.265625 49.453125 -25.722656 51.390625 -23.421875 C 53.328125 -21.117188 54.296875 -18.15625 54.296875 -14.53125 C 54.296875 -9.863281 52.570312 -6.273438 49.125 -3.765625 C 45.6875 -1.253906 40.601562 0 33.875 0 L 8.859375 0 L 8.859375 -54.375 L 32.3125 -54.375 C 38.375 -54.375 43.070312 -53.15625 46.40625 -50.71875 C 49.75 -48.289062 51.421875 -44.847656 51.421875 -40.390625 C 51.421875 -37.390625 50.679688 -34.835938 49.203125 -32.734375 C 47.734375 -30.640625 45.703125 -29.078125 43.109375 -28.046875 Z M 14.609375 -49.640625 L 14.609375 -29.90625 L 31.921875 -29.90625 C 36.328125 -29.90625 39.722656 -30.742188 42.109375 -32.421875 C 44.492188 -34.109375 45.6875 -36.5625 45.6875 -39.78125 C 45.6875 -42.988281 44.492188 -45.429688 42.109375 -47.109375 C 39.722656 -48.796875 36.328125 -49.640625 31.921875 -49.640625 Z M 33.796875 -4.734375 C 38.660156 -4.734375 42.335938 -5.5625 44.828125 -7.21875 C 47.316406 -8.882812 48.5625 -11.476562 48.5625 -15 C 48.5625 -21.78125 43.640625 -25.171875 33.796875 -25.171875 L 14.609375 -25.171875 L 14.609375 -4.734375 Z M 33.796875 -4.734375 "/></g></g></g><g fill="#000000" fill-opacity="1"><g transform="translate(868.775933, 642.422287)"><g><path d="M 45.984375 0 L 33.5625 -17.484375 C 32.164062 -17.328125 30.710938 -17.25 29.203125 -17.25 L 14.609375 -17.25 L 14.609375 0 L 8.859375 0 L 8.859375 -54.375 L 29.203125 -54.375 C 36.148438 -54.375 41.585938 -52.71875 45.515625 -49.40625 C 49.453125 -46.09375 51.421875 -41.535156 51.421875 -35.734375 C 51.421875 -31.484375 50.347656 -27.894531 48.203125 -24.96875 C 46.054688 -22.050781 42.988281 -19.941406 39 -18.640625 L 52.28125 0 Z M 29.0625 -22.140625 C 34.445312 -22.140625 38.5625 -23.328125 41.40625 -25.703125 C 44.257812 -28.085938 45.6875 -31.429688 45.6875 -35.734375 C 45.6875 -40.140625 44.257812 -43.519531 41.40625 -45.875 C 38.5625 -48.226562 34.445312 -49.40625 29.0625 -49.40625 L 14.609375 -49.40625 L 14.609375 -22.140625 Z M 29.0625 -22.140625 "/></g></g></g><g fill="#000000" fill-opacity="1"><g transform="translate(979.091539, 642.422287)"><g><path d="M 32.625 0.46875 C 27.238281 0.46875 22.359375 -0.734375 17.984375 -3.140625 C 13.609375 -5.554688 10.191406 -8.859375 7.734375 -13.046875 C 5.273438 -17.242188 4.046875 -21.957031 4.046875 -27.1875 C 4.046875 -32.414062 5.273438 -37.128906 7.734375 -41.328125 C 10.191406 -45.523438 13.609375 -48.828125 17.984375 -51.234375 C 22.359375 -53.640625 27.238281 -54.84375 32.625 -54.84375 C 38.007812 -54.84375 42.863281 -53.648438 47.1875 -51.265625 C 51.519531 -48.890625 54.925781 -45.585938 57.40625 -41.359375 C 59.894531 -37.140625 61.140625 -32.414062 61.140625 -27.1875 C 61.140625 -21.957031 59.894531 -17.234375 57.40625 -13.015625 C 54.925781 -8.796875 51.519531 -5.492188 47.1875 -3.109375 C 42.863281 -0.722656 38.007812 0.46875 32.625 0.46875 Z M 32.625 -4.65625 C 36.925781 -4.65625 40.8125 -5.625 44.28125 -7.5625 C 47.75 -9.507812 50.46875 -12.203125 52.4375 -15.640625 C 54.40625 -19.085938 55.390625 -22.9375 55.390625 -27.1875 C 55.390625 -31.4375 54.40625 -35.28125 52.4375 -38.71875 C 50.46875 -42.164062 47.75 -44.859375 44.28125 -46.796875 C 40.8125 -48.742188 36.925781 -49.71875 32.625 -49.71875 C 28.332031 -49.71875 24.4375 -48.742188 20.9375 -46.796875 C 17.4375 -44.859375 14.691406 -42.164062 12.703125 -38.71875 C 10.710938 -35.28125 9.71875 -31.4375 9.71875 -27.1875 C 9.71875 -22.9375 10.710938 -19.085938 12.703125 -15.640625 C 14.691406 -12.203125 17.4375 -9.507812 20.9375 -7.5625 C 24.4375 -5.625 28.332031 -4.65625 32.625 -4.65625 Z M 32.625 -4.65625 "/></g></g></g><g fill="#000000" fill-opacity="1"><g transform="translate(1098.415222, 642.422287)"><g><path d="M 83.515625 -54.375 L 65.1875 0 L 59.125 0 L 43.1875 -46.375 L 27.1875 0 L 21.203125 0 L 2.875 -54.375 L 8.78125 -54.375 L 24.46875 -7.609375 L 40.703125 -54.375 L 46.0625 -54.375 L 62.078125 -7.375 L 78 -54.375 Z M 83.515625 -54.375 "/></g></g></g><g fill="#000000" fill-opacity="1"><g transform="translate(1238.861123, 642.422287)"><g><path d="M 54.296875 -54.375 L 54.296875 0 L 49.5625 0 L 14.609375 -44.125 L 14.609375 0 L 8.859375 0 L 8.859375 -54.375 L 13.59375 -54.375 L 48.625 -10.25 L 48.625 -54.375 Z M 54.296875 -54.375 "/></g></g></g><g fill="#000000" fill-opacity="1"><g transform="translate(1356.165725, 642.422287)"><g><path d="M 47.3125 -4.96875 L 47.3125 0 L 8.859375 0 L 8.859375 -54.375 L 46.140625 -54.375 L 46.140625 -49.40625 L 14.609375 -49.40625 L 14.609375 -30.0625 L 42.734375 -30.0625 L 42.734375 -25.171875 L 14.609375 -25.171875 L 14.609375 -4.96875 Z M 47.3125 -4.96875 "/></g></g></g><g fill="#000000" fill-opacity="1"><g transform="translate(52.059734, 747.924595)"><g><path d="M 8.859375 -54.375 L 14.609375 -54.375 L 14.609375 0 L 8.859375 0 Z M 8.859375 -54.375 "/></g></g></g><g fill="#000000" fill-opacity="1"><g transform="translate(129.682702, 747.924595)"><g><path d="M 54.296875 -54.375 L 54.296875 0 L 49.5625 0 L 14.609375 -44.125 L 14.609375 0 L 8.859375 0 L 8.859375 -54.375 L 13.59375 -54.375 L 48.625 -10.25 L 48.625 -54.375 Z M 54.296875 -54.375 "/></g></g></g><g fill="#000000" fill-opacity="1"><g transform="translate(246.987361, 747.924595)"><g><path d="M 19.421875 -49.40625 L 0.3125 -49.40625 L 0.3125 -54.375 L 44.28125 -54.375 L 44.28125 -49.40625 L 25.171875 -49.40625 L 25.171875 0 L 19.421875 0 Z M 19.421875 -49.40625 "/></g></g></g><g fill="#000000" fill-opacity="1"><g transform="translate(345.732491, 747.924595)"><g><path d="M 47.3125 -4.96875 L 47.3125 0 L 8.859375 0 L 8.859375 -54.375 L 46.140625 -54.375 L 46.140625 -49.40625 L 14.609375 -49.40625 L 14.609375 -30.0625 L 42.734375 -30.0625 L 42.734375 -25.171875 L 14.609375 -25.171875 L 14.609375 -4.96875 Z M 47.3125 -4.96875 "/></g></g></g><g fill="#000000" fill-opacity="1"><g transform="translate(451.854818, 747.924595)"><g><path d="M 45.984375 0 L 33.5625 -17.484375 C 32.164062 -17.328125 30.710938 -17.25 29.203125 -17.25 L 14.609375 -17.25 L 14.609375 0 L 8.859375 0 L 8.859375 -54.375 L 29.203125 -54.375 C 36.148438 -54.375 41.585938 -52.71875 45.515625 -49.40625 C 49.453125 -46.09375 51.421875 -41.535156 51.421875 -35.734375 C 51.421875 -31.484375 50.347656 -27.894531 48.203125 -24.96875 C 46.054688 -22.050781 42.988281 -19.941406 39 -18.640625 L 52.28125 0 Z M 29.0625 -22.140625 C 34.445312 -22.140625 38.5625 -23.328125 41.40625 -25.703125 C 44.257812 -28.085938 45.6875 -31.429688 45.6875 -35.734375 C 45.6875 -40.140625 44.257812 -43.519531 41.40625 -45.875 C 38.5625 -48.226562 34.445312 -49.40625 29.0625 -49.40625 L 14.609375 -49.40625 L 14.609375 -22.140625 Z M 29.0625 -22.140625 "/></g></g></g><g fill="#000000" fill-opacity="1"><g transform="translate(562.170484, 747.924595)"><g><path d="M 54.296875 -54.375 L 54.296875 0 L 49.5625 0 L 14.609375 -44.125 L 14.609375 0 L 8.859375 0 L 8.859375 -54.375 L 13.59375 -54.375 L 48.625 -10.25 L 48.625 -54.375 Z M 54.296875 -54.375 "/></g></g></g><g fill="#000000" fill-opacity="1"><g transform="translate(679.475143, 747.924595)"><g><path d="M 42.96875 -14.53125 L 12.65625 -14.53125 L 6.140625 0 L 0.15625 0 L 25.015625 -54.375 L 30.6875 -54.375 L 55.546875 0 L 49.484375 0 Z M 40.859375 -19.1875 L 27.8125 -48.40625 L 14.765625 -19.1875 Z M 40.859375 -19.1875 "/></g></g></g><g fill="#000000" fill-opacity="1"><g transform="translate(789.324933, 747.924595)"><g><path d="M 19.421875 -49.40625 L 0.3125 -49.40625 L 0.3125 -54.375 L 44.28125 -54.375 L 44.28125 -49.40625 L 25.171875 -49.40625 L 25.171875 0 L 19.421875 0 Z M 19.421875 -49.40625 "/></g></g></g><g fill="#000000" fill-opacity="1"><g transform="translate(888.070063, 747.924595)"><g><path d="M 8.859375 -54.375 L 14.609375 -54.375 L 14.609375 0 L 8.859375 0 Z M 8.859375 -54.375 "/></g></g></g><g fill="#000000" fill-opacity="1"><g transform="translate(965.693032, 747.924595)"><g><path d="M 32.625 0.46875 C 27.238281 0.46875 22.359375 -0.734375 17.984375 -3.140625 C 13.609375 -5.554688 10.191406 -8.859375 7.734375 -13.046875 C 5.273438 -17.242188 4.046875 -21.957031 4.046875 -27.1875 C 4.046875 -32.414062 5.273438 -37.128906 7.734375 -41.328125 C 10.191406 -45.523438 13.609375 -48.828125 17.984375 -51.234375 C 22.359375 -53.640625 27.238281 -54.84375 32.625 -54.84375 C 38.007812 -54.84375 42.863281 -53.648438 47.1875 -51.265625 C 51.519531 -48.890625 54.925781 -45.585938 57.40625 -41.359375 C 59.894531 -37.140625 61.140625 -32.414062 61.140625 -27.1875 C 61.140625 -21.957031 59.894531 -17.234375 57.40625 -13.015625 C 54.925781 -8.796875 51.519531 -5.492188 47.1875 -3.109375 C 42.863281 -0.722656 38.007812 0.46875 32.625 0.46875 Z M 32.625 -4.65625 C 36.925781 -4.65625 40.8125 -5.625 44.28125 -7.5625 C 47.75 -9.507812 50.46875 -12.203125 52.4375 -15.640625 C 54.40625 -19.085938 55.390625 -22.9375 55.390625 -27.1875 C 55.390625 -31.4375 54.40625 -35.28125 52.4375 -38.71875 C 50.46875 -42.164062 47.75 -44.859375 44.28125 -46.796875 C 40.8125 -48.742188 36.925781 -49.71875 32.625 -49.71875 C 28.332031 -49.71875 24.4375 -48.742188 20.9375 -46.796875 C 17.4375 -44.859375 14.691406 -42.164062 12.703125 -38.71875 C 10.710938 -35.28125 9.71875 -31.4375 9.71875 -27.1875 C 9.71875 -22.9375 10.710938 -19.085938 12.703125 -15.640625 C 14.691406 -12.203125 17.4375 -9.507812 20.9375 -7.5625 C 24.4375 -5.625 28.332031 -4.65625 32.625 -4.65625 Z M 32.625 -4.65625 "/></g></g></g><g fill="#000000" fill-opacity="1"><g transform="translate(1085.016772, 747.924595)"><g><path d="M 54.296875 -54.375 L 54.296875 0 L 49.5625 0 L 14.609375 -44.125 L 14.609375 0 L 8.859375 0 L 8.859375 -54.375 L 13.59375 -54.375 L 48.625 -10.25 L 48.625 -54.375 Z M 54.296875 -54.375 "/></g></g></g><g fill="#000000" fill-opacity="1"><g transform="translate(1202.321374, 747.924595)"><g><path d="M 42.96875 -14.53125 L 12.65625 -14.53125 L 6.140625 0 L 0.15625 0 L 25.015625 -54.375 L 30.6875 -54.375 L 55.546875 0 L 49.484375 0 Z M 40.859375 -19.1875 L 27.8125 -48.40625 L 14.765625 -19.1875 Z M 40.859375 -19.1875 "/></g></g></g><g fill="#000000" fill-opacity="1"><g transform="translate(1312.171165, 747.924595)"><g><path d="M 8.859375 -54.375 L 14.609375 -54.375 L 14.609375 -4.96875 L 45.0625 -4.96875 L 45.0625 0 L 8.859375 0 Z M 8.859375 -54.375 "/></g></g></g></g></g></svg>